<svg version="1.1" id="Layer_1" xmlns="http://www.w3.org/2000/svg" xmlns:xlink="http://www.w3.org/1999/xlink" x="0px" y="0px"
	 width="100%" viewBox="0 0 4096 4096" enable-background="new 0 0 4096 4096" xml:space="preserve">
<path fill="#006DCC" opacity="1.000000" stroke="none" 
	d="
M4098.000000,818.000000 
	C4098.000000,1638.732056 4098.000000,2459.464111 4097.213867,3280.741943 
	C4095.726318,3283.418457 4094.671143,3285.502441 4094.380615,3287.687988 
	C4092.672607,3300.525391 4091.559326,3313.454346 4089.481201,3326.228027 
	C4080.336670,3382.442871 4066.974609,3437.589111 4047.811279,3491.311768 
	C4023.895996,3558.356201 3992.885742,3621.858154 3954.129883,3681.560303 
	C3907.843750,3752.863037 3852.891602,3816.631836 3788.912842,3872.710205 
	C3731.299561,3923.209229 3668.406982,3965.775146 3600.227539,4000.587402 
	C3565.227783,4018.458496 3529.100098,4033.702881 3492.061523,4046.869873 
	C3434.222656,4067.431641 3374.909912,4081.825928 3314.117676,4090.153076 
	C3301.952881,4091.819580 3289.714844,4092.949951 3277.522461,4094.423828 
	C3275.601318,4094.656006 3272.429443,4094.125488 3274.000000,4098.000000 
	C2459.934570,4098.000000 1645.869019,4098.000000 831.375488,4097.231934 
	C829.517090,4095.777100 828.144836,4094.674805 826.647949,4094.465820 
	C801.655945,4090.975830 776.510010,4088.390625 751.668945,4084.053955 
	C656.124207,4067.373779 565.827209,4035.255127 480.710236,3988.963379 
	C394.078369,3941.848145 316.850494,3882.390625 249.507843,3810.148926 
	C212.416840,3770.359619 178.937973,3727.845459 149.313446,3682.237061 
	C103.147125,3611.162354 67.678314,3535.114258 42.884914,3454.093018 
	C26.990059,3402.150879 15.573200,3349.247803 9.679321,3295.213623 
	C8.095799,3280.696045 7.002835,3266.124756 5.635146,3251.583008 
	C5.406460,3249.151367 6.336240,3245.818848 2.000000,3246.000000 
	C2.000000,2449.267822 2.000000,1652.535767 2.836486,855.097778 
	C4.324017,852.979614 5.479766,851.592529 5.552074,850.151062 
	C7.236658,816.569397 11.941782,783.367310 17.863958,750.311218 
	C34.968307,654.838562 66.869087,564.503967 113.221428,479.399261 
	C160.396515,392.783844 219.868683,315.579895 292.133240,248.234955 
	C329.493744,213.417862 369.179504,181.625595 411.717102,153.467133 
	C485.462372,104.650238 564.586792,67.082062 649.302795,41.458981 
	C693.301392,28.151226 737.958069,17.756140 783.558228,11.729482 
	C801.329712,9.380750 819.187195,7.686748 836.993530,5.592836 
	C839.150452,5.339196 842.614441,6.348133 842.000000,2.000000 
	C1648.065430,2.000000 2454.130859,2.000000 3260.633057,2.775218 
	C3262.835205,4.247622 3264.546875,5.333280 3266.373779,5.584190 
	C3297.949219,9.921627 3329.798340,12.780406 3361.076416,18.675079 
	C3449.931396,35.420670 3534.298340,65.350967 3614.230469,107.805962 
	C3656.375000,130.190399 3696.559570,155.581757 3734.689941,184.210831 
	C3785.679688,222.495575 3832.193848,265.610901 3874.236084,313.609039 
	C3923.614990,369.983124 3965.358643,431.508240 3999.731201,498.034210 
	C4018.232422,533.841980 4034.066162,570.837646 4047.539062,608.845703 
	C4067.489014,665.125427 4081.923096,722.754150 4090.257568,781.889648 
	C4091.786865,792.739197 4092.976807,803.636108 4094.417236,814.498779 
	C4094.672363,816.422424 4094.150146,819.570190 4098.000000,818.000000 
M681.949707,1881.063110 
	C707.650330,1937.473145 745.598999,1983.833374 796.133972,2019.765625 
	C836.368225,2048.373535 880.896301,2067.089355 929.419006,2075.938965 
	C972.712585,2083.834961 1016.327454,2082.047852 1059.837524,2078.239990 
	C1101.975342,2074.552246 1144.046509,2070.961426 1186.441162,2072.493408 
	C1228.942017,2074.029053 1270.667603,2079.668213 1311.033447,2093.414551 
	C1351.323975,2107.135254 1386.974243,2128.558350 1417.770996,2158.113770 
	C1451.371338,2190.360107 1476.627808,2228.533447 1497.627563,2269.696045 
	C1529.661987,2332.488525 1552.040283,2398.993896 1572.096191,2466.335449 
	C1585.120972,2510.068848 1596.091675,2554.341309 1604.392822,2599.215820 
	C1610.023804,2629.655518 1615.485107,2660.161133 1619.706543,2690.818359 
	C1624.976929,2729.093506 1630.397095,2767.247070 1639.827515,2804.813477 
	C1652.271729,2854.385254 1669.481812,2902.122070 1691.928345,2947.993164 
	C1731.500854,3028.861328 1784.941772,3099.286377 1852.086548,3159.199951 
	C1904.635010,3206.089355 1963.303223,3243.724121 2027.346191,3272.976074 
	C2067.695801,3291.406250 2109.378174,3306.314209 2152.474365,3316.617920 
	C2181.575439,3323.575439 2211.091309,3329.405273 2240.742920,3333.283936 
	C2271.379395,3337.291748 2302.370850,3339.287109 2333.269775,3340.359619 
	C2357.500977,3341.200684 2381.833740,3339.454346 2406.110840,3338.564697 
	C2435.488770,3337.488525 2464.461182,3332.934326 2493.143799,3326.833496 
	C2554.732178,3313.733398 2613.162842,3291.836182 2668.266602,3261.436523 
	C2744.909180,3219.154053 2811.516602,3164.414062 2867.798340,3097.380371 
	C2943.806396,3006.852539 2995.897949,2904.247559 3022.574707,2788.860107 
	C3033.193359,2742.929932 3039.322510,2696.443359 3040.285889,2649.399902 
	C3040.837402,2622.468750 3040.069336,2595.430420 3038.269043,2568.549316 
	C3035.326660,2524.614014 3027.251465,2481.470947 3015.642822,2438.946289 
	C3000.223389,2382.461182 2977.990967,2328.810791 2949.172119,2277.945312 
	C2910.932373,2210.450928 2862.861084,2150.775635 2804.830078,2099.198242 
	C2748.880371,2049.470947 2686.654297,2009.630371 2617.938721,1979.849121 
	C2579.651855,1963.255737 2540.294678,1949.802856 2499.632080,1940.737061 
	C2472.374023,1934.659912 2444.691162,1930.261353 2417.030273,1926.277222 
	C2381.326416,1921.134766 2345.266113,1921.140869 2309.302246,1922.131714 
	C2285.703125,1922.781982 2262.053223,1924.342285 2238.603760,1927.039917 
	C2199.541016,1931.533691 2160.950439,1938.887451 2122.989014,1949.393677 
	C2083.222168,1960.399658 2043.433838,1971.344482 2003.514771,1981.779907 
	C1973.248169,1989.692139 1942.867310,1997.232910 1912.347656,2004.094849 
	C1870.098633,2013.594238 1827.526123,2021.557129 1784.514771,2026.770508 
	C1761.729248,2029.532471 1738.862793,2032.279541 1715.958618,2033.214722 
	C1695.725464,2034.040894 1675.284912,2033.437866 1655.121582,2031.517456 
	C1621.048706,2028.272095 1588.521484,2019.133301 1558.314209,2002.315674 
	C1522.665039,1982.468140 1494.023926,1954.823975 1470.304932,1922.245972 
	C1452.695190,1898.059082 1436.417847,1872.814941 1420.862427,1847.241577 
	C1401.148560,1814.831909 1382.761597,1781.584717 1367.656494,1746.718994 
	C1350.205933,1706.439575 1332.933716,1666.070679 1316.407471,1625.406006 
	C1294.211670,1570.790771 1262.539429,1522.941772 1217.709229,1484.361938 
	C1165.036377,1439.033081 1104.030640,1412.298584 1035.035645,1403.618530 
	C986.046814,1397.455444 937.939331,1401.662109 890.858765,1416.059448 
	C837.574829,1432.354126 791.593872,1460.981567 752.970154,1501.122437 
	C682.114136,1574.761353 648.134460,1662.502808 653.244141,1764.875122 
	C655.241577,1804.894531 665.070007,1843.093018 681.949707,1881.063110 
M2758.260742,1289.157104 
	C2766.047852,1253.565308 2770.116455,1217.646729 2769.569580,1181.119141 
	C2768.632080,1118.513794 2754.761963,1058.983765 2727.656982,1002.701721 
	C2697.800781,940.707520 2655.264404,888.857178 2600.301270,847.290649 
	C2554.001221,812.275635 2502.591064,787.833862 2446.343750,773.926697 
	C2408.376709,764.539368 2369.743408,761.066772 2330.506348,762.121033 
	C2291.557129,763.167664 2253.582764,769.243164 2216.616455,780.911865 
	C2141.588623,804.594788 2077.577881,845.826660 2025.201782,904.614014 
	C1966.162476,970.880127 1930.722290,1048.068359 1919.470703,1136.233398 
	C1912.473877,1191.059448 1915.714722,1245.241089 1929.800781,1298.702393 
	C1952.936523,1386.510254 1999.881836,1459.185913 2069.569824,1517.178223 
	C2114.712891,1554.744873 2165.845459,1581.246704 2222.093018,1597.876587 
	C2255.451172,1607.739136 2289.648438,1613.317383 2324.334961,1614.826538 
	C2355.645508,1616.188843 2386.885010,1614.523315 2417.910889,1609.192871 
	C2460.579590,1601.861938 2501.219482,1588.589722 2539.680176,1568.812134 
	C2583.312744,1546.375122 2621.967041,1517.272827 2655.390869,1481.267212 
	C2681.605469,1453.027710 2703.675537,1421.898926 2721.450928,1387.709473 
	C2737.490723,1356.858887 2749.461182,1324.494263 2758.260742,1289.157104 
z"/>
<path fill="#FEFFFF" opacity="1.000000" stroke="none" 
	d="
M681.658813,1880.360474 
	C665.070007,1843.093018 655.241577,1804.894531 653.244141,1764.875122 
	C648.134460,1662.502808 682.114136,1574.761353 752.970154,1501.122437 
	C791.593872,1460.981567 837.574829,1432.354126 890.858765,1416.059448 
	C937.939331,1401.662109 986.046814,1397.455444 1035.035645,1403.618530 
	C1104.030640,1412.298584 1165.036377,1439.033081 1217.709229,1484.361938 
	C1262.539429,1522.941772 1294.211670,1570.790771 1316.407471,1625.406006 
	C1332.933716,1666.070679 1350.205933,1706.439575 1367.656494,1746.718994 
	C1382.761597,1781.584717 1401.148560,1814.831909 1420.862427,1847.241577 
	C1436.417847,1872.814941 1452.695190,1898.059082 1470.304932,1922.245972 
	C1494.023926,1954.823975 1522.665039,1982.468140 1558.314209,2002.315674 
	C1588.521484,2019.133301 1621.048706,2028.272095 1655.121582,2031.517456 
	C1675.284912,2033.437866 1695.725464,2034.040894 1715.958618,2033.214722 
	C1738.862793,2032.279541 1761.729248,2029.532471 1784.514771,2026.770508 
	C1827.526123,2021.557129 1870.098633,2013.594238 1912.347656,2004.094849 
	C1942.867310,1997.232910 1973.248169,1989.692139 2003.514771,1981.779907 
	C2043.433838,1971.344482 2083.222168,1960.399658 2122.989014,1949.393677 
	C2160.950439,1938.887451 2199.541016,1931.533691 2238.603760,1927.039917 
	C2262.053223,1924.342285 2285.703125,1922.781982 2309.302246,1922.131714 
	C2345.266113,1921.140869 2381.326416,1921.134766 2417.030273,1926.277222 
	C2444.691162,1930.261353 2472.374023,1934.659912 2499.632080,1940.737061 
	C2540.294678,1949.802856 2579.651855,1963.255737 2617.938721,1979.849121 
	C2686.654297,2009.630371 2748.880371,2049.470947 2804.830078,2099.198242 
	C2862.861084,2150.775635 2910.932373,2210.450928 2949.172119,2277.945312 
	C2977.990967,2328.810791 3000.223389,2382.461182 3015.642822,2438.946289 
	C3027.251465,2481.470947 3035.326660,2524.614014 3038.269043,2568.549316 
	C3040.069336,2595.430420 3040.837402,2622.468750 3040.285889,2649.399902 
	C3039.322510,2696.443359 3033.193359,2742.929932 3022.574707,2788.860107 
	C2995.897949,2904.247559 2943.806396,3006.852539 2867.798340,3097.380371 
	C2811.516602,3164.414062 2744.909180,3219.154053 2668.266602,3261.436523 
	C2613.162842,3291.836182 2554.732178,3313.733398 2493.143799,3326.833496 
	C2464.461182,3332.934326 2435.488770,3337.488525 2406.110840,3338.564697 
	C2381.833740,3339.454346 2357.500977,3341.200684 2333.269775,3340.359619 
	C2302.370850,3339.287109 2271.379395,3337.291748 2240.742920,3333.283936 
	C2211.091309,3329.405273 2181.575439,3323.575439 2152.474365,3316.617920 
	C2109.378174,3306.314209 2067.695801,3291.406250 2027.346191,3272.976074 
	C1963.303223,3243.724121 1904.635010,3206.089355 1852.086548,3159.199951 
	C1784.941772,3099.286377 1731.500854,3028.861328 1691.928345,2947.993164 
	C1669.481812,2902.122070 1652.271729,2854.385254 1639.827515,2804.813477 
	C1630.397095,2767.247070 1624.976929,2729.093506 1619.706543,2690.818359 
	C1615.485107,2660.161133 1610.023804,2629.655518 1604.392822,2599.215820 
	C1596.091675,2554.341309 1585.120972,2510.068848 1572.096191,2466.335449 
	C1552.040283,2398.993896 1529.661987,2332.488525 1497.627563,2269.696045 
	C1476.627808,2228.533447 1451.371338,2190.360107 1417.770996,2158.113770 
	C1386.974243,2128.558350 1351.323975,2107.135254 1311.033447,2093.414551 
	C1270.667603,2079.668213 1228.942017,2074.029053 1186.441162,2072.493408 
	C1144.046509,2070.961426 1101.975342,2074.552246 1059.837524,2078.239990 
	C1016.327454,2082.047852 972.712585,2083.834961 929.419006,2075.938965 
	C880.896301,2067.089355 836.368225,2048.373535 796.133972,2019.765625 
	C745.598999,1983.833374 707.650330,1937.473145 681.658813,1880.360474 
z"/>
<path fill="#FEFFFF" opacity="1.000000" stroke="none" 
	d="
M2758.024658,1289.957886 
	C2749.461182,1324.494263 2737.490723,1356.858887 2721.450928,1387.709473 
	C2703.675537,1421.898926 2681.605469,1453.027710 2655.390869,1481.267212 
	C2621.967041,1517.272827 2583.312744,1546.375122 2539.680176,1568.812134 
	C2501.219482,1588.589722 2460.579590,1601.861938 2417.910889,1609.192871 
	C2386.885010,1614.523315 2355.645508,1616.188843 2324.334961,1614.826538 
	C2289.648438,1613.317383 2255.451172,1607.739136 2222.093018,1597.876587 
	C2165.845459,1581.246704 2114.712891,1554.744873 2069.569824,1517.178223 
	C1999.881836,1459.185913 1952.936523,1386.510254 1929.800781,1298.702393 
	C1915.714722,1245.241089 1912.473877,1191.059448 1919.470703,1136.233398 
	C1930.722290,1048.068359 1966.162476,970.880127 2025.201782,904.614014 
	C2077.577881,845.826660 2141.588623,804.594788 2216.616455,780.911865 
	C2253.582764,769.243164 2291.557129,763.167664 2330.506348,762.121033 
	C2369.743408,761.066772 2408.376709,764.539368 2446.343750,773.926697 
	C2502.591064,787.833862 2554.001221,812.275635 2600.301270,847.290649 
	C2655.264404,888.857178 2697.800781,940.707520 2727.656982,1002.701721 
	C2754.761963,1058.983765 2768.632080,1118.513794 2769.569580,1181.119141 
	C2770.116455,1217.646729 2766.047852,1253.565308 2758.024658,1289.957886 
z"/>
</svg>
